<svg width="24" height="7" viewBox="0 0 24 7" fill="none" xmlns="http://www.w3.org/2000/svg">
<path d="M12.2238 0.000606537C12.4179 0.000606537 12.6103 0.03721 12.7887 0.107577L22.9427 4.13334C23.451 4.35454 23.7754 4.82754 23.7754 5.34725C23.7754 6.08816 23.1259 6.68927 22.325 6.68927C22.1496 6.68927 21.975 6.65993 21.8112 6.60218L12.2238 2.80456L2.63577 6.60218C2.44235 6.68612 2.23154 6.72998 2.01801 6.72998C1.21741 6.72998 0.567581 6.12918 0.567581 5.38796C0.567581 4.83007 0.94042 4.33055 1.50428 4.13334L11.6583 0.107577C11.8363 0.03721 12.0287 0.000606537 12.2232 -2.47955e-05L12.2238 0.000606537Z" fill="#00D0BE"/>
</svg>
