<svg width="24" height="7" viewBox="0 0 24 7" fill="none" xmlns="http://www.w3.org/2000/svg">
<path d="M12.1199 6.72937C11.9258 6.72937 11.7334 6.69277 11.555 6.6224L1.40102 2.59664C0.89276 2.37544 0.568359 1.90244 0.568359 1.38273C0.568359 0.641824 1.21784 0.0407057 2.01878 0.0407057C2.19412 0.0407057 2.36877 0.0700516 2.5325 0.127797L12.1199 3.92542L21.708 0.127797C21.9014 0.0438612 22.1122 0 22.3257 0C23.1263 0 23.7762 0.600803 23.7762 1.34203C23.7762 1.89991 23.4033 2.39943 22.8395 2.59664L12.6855 6.6224C12.5074 6.69277 12.315 6.72937 12.1206 6.73001L12.1199 6.72937Z" fill="#00D0BE"/>
</svg>
