<svg width="289" height="161" viewBox="0 0 289 161" fill="none" xmlns="http://www.w3.org/2000/svg">
<rect x="0.4" y="0.4" width="288.2" height="160.2" fill="#E0FAF8"/>
<path d="M120.654 125.058H96.8105V129.811H120.654V125.058Z" fill="#006E72"/>
<path d="M103.621 37.9209H170.043L198.996 64.8546L170.043 91.7875H103.621V37.9209Z" fill="#17E7B3"/>
<path d="M146.201 80.6974C155.607 80.6974 163.232 73.6043 163.232 64.8546C163.232 56.1048 155.607 49.0117 146.201 49.0117C136.795 49.0117 129.17 56.1048 129.17 64.8546C129.17 73.6043 136.795 80.6974 146.201 80.6974Z" fill="#E0FAF8"/>
<path d="M117.25 63.2705H120.656V66.4392H117.25V63.2705Z" fill="white"/>
<path d="M117.25 56.9331H120.656V60.1018H117.25V56.9331Z" fill="white"/>
<path d="M117.25 69.6074H120.656V72.7761H117.25V69.6074Z" fill="white"/>
<path d="M110.439 125.058V91.7878H113.846V125.058H110.439Z" fill="#003333"/>
<path d="M110.433 37.921V34.753C110.433 34.3152 110.242 33.9189 109.934 33.6326L109.87 33.569C109.572 33.3204 109.173 33.1685 108.732 33.1685C108.261 33.1685 107.834 33.3463 107.526 33.6326L107.461 33.6901C107.192 33.9702 107.027 34.344 107.027 34.753V125.058H103.621V34.753C103.621 33.4961 104.15 32.3511 105.011 31.5009L105.118 31.3919C106.042 30.5322 107.32 30 108.731 30C110.079 30 111.308 30.4911 112.224 31.2913L112.343 31.3919C113.267 32.2519 113.84 33.4403 113.84 34.7518V37.9212H110.433V37.921Z" fill="#003333"/>
<path d="M110.439 85.4509V44.259H113.846V85.4509H110.439Z" fill="#003333"/>
<path d="M155.924 61.222L145.705 70.728C145.04 71.3465 143.962 71.3465 143.297 70.728L136.484 64.3909L138.893 62.1503L144.501 67.3668L153.515 58.9817L155.924 61.2222V61.222Z" fill="#006E72"/>
<path d="M199 131.395H90V128.227H199V131.395Z" fill="#003333"/>
<rect x="0.4" y="0.4" width="288.2" height="160.2" stroke="#82ECD3" stroke-width="0.8"/>
</svg>
