<svg width="14" height="15" viewBox="0 0 14 15" fill="none" xmlns="http://www.w3.org/2000/svg">
<path d="M13.8207 10.0921H12.6248V14.51H10.6528L7.7005 10.0921H3.03954V14.51H1.19508V10.0921H0V8.43059H1.19508V6.07982H0V4.4179H1.19508V0H3.16794L6.12024 4.4179H10.7812V0H12.6248V4.4179H13.8207V6.07982H12.6248V8.43059H13.8207V10.0921ZM10.7812 8.43059V6.07982H7.23136L8.80175 8.43059H10.7812ZM3.90704 4.4179L3.03954 3.12103V4.4179H3.90704ZM10.7812 11.3898V10.0925H9.91287L10.7812 11.3898ZM6.58938 8.43099L5.01817 6.0802H3.03954V8.43099H6.58856H6.58938Z" fill="black"/>
</svg>
